<svg width="18" height="12" viewBox="0 0 12 12" fill="none" xmlns="http://www.w3.org/2000/svg">
<path d="M1.5366 7.35325L1.53673 7.35337L5.7366 11.5657C5.77565 11.6048 5.81479 11.6293 5.85381 11.6432L5.85439 11.6434C5.89858 11.6593 5.94707 11.6677 6.00078 11.6677C6.05449 11.6677 6.10299 11.6593 6.14717 11.6434L6.14775 11.6432C6.18677 11.6293 6.22592 11.6048 6.26496 11.5657L10.4775 7.35325C10.5699 7.26083 10.6169 7.14654 10.6169 7.00156C10.6169 6.85912 10.5675 6.73988 10.465 6.63738C10.3612 6.53361 10.2457 6.48543 10.1133 6.48543C9.98091 6.48543 9.86537 6.53361 9.7616 6.63738L6.0866 10.3124L6.00078 10.3982L5.91496 10.3124L2.23996 6.63738C2.14692 6.54433 2.0345 6.49793 1.89478 6.49793C1.75716 6.49793 1.6397 6.54678 1.5366 6.64988C1.43283 6.75365 1.38465 6.86919 1.38465 7.00156C1.38465 7.13394 1.43283 7.24947 1.5366 7.35325Z" fill="#666560" stroke="white" stroke-width="0.242729"/>
</svg>
