<svg width="30" height="31" viewBox="0 0 30 31" fill="none" xmlns="http://www.w3.org/2000/svg">
<rect x="0.9375" y="1.4375" width="28.125" height="28.125" rx="14.0625" fill="white"/>
<rect x="0.9375" y="1.4375" width="28.125" height="28.125" rx="14.0625" stroke="#F1F1F1" stroke-width="1.875"/>
<path d="M10.9167 20.8245C10.5958 20.8245 10.3211 20.7103 10.0924 20.4821C9.86375 20.2538 9.74961 19.979 9.75 19.6578V11.4911C9.75 11.1703 9.86433 10.8956 10.093 10.6669C10.3217 10.4382 10.5962 10.3241 10.9167 10.3245H16.1229L14.9563 11.4911H10.9167V19.6578H19.0833V15.6036L20.25 14.437V19.6578C20.25 19.9786 20.1357 20.2534 19.907 20.4821C19.6783 20.7107 19.4038 20.8249 19.0833 20.8245H10.9167ZM17.4354 10.6599L18.2667 11.4766L14.4167 15.3266V16.1578H15.2333L19.0979 12.2932L19.9292 13.1099L16.0646 16.9745C15.9576 17.0814 15.8336 17.1666 15.6924 17.23C15.5513 17.2934 15.4031 17.3249 15.2479 17.3245H13.8333C13.6681 17.3245 13.5294 17.2685 13.4174 17.1565C13.3054 17.0445 13.2496 16.906 13.25 16.7411V15.3266C13.25 15.171 13.2792 15.0226 13.3375 14.8815C13.3958 14.7403 13.4785 14.6165 13.5854 14.5099L17.4354 10.6599ZM19.9292 13.1099L17.4354 10.6599L18.8938 9.20156C19.1271 8.96823 19.4067 8.85156 19.7326 8.85156C20.0585 8.85156 20.333 8.96823 20.5563 9.20156L21.3729 10.0328C21.5965 10.2564 21.7083 10.5286 21.7083 10.8495C21.7083 11.1703 21.5965 11.4425 21.3729 11.6661L19.9292 13.1099Z" fill="#232221"/>
</svg>
