<svg width="13" height="13" viewBox="0 0 13 13" fill="none" xmlns="http://www.w3.org/2000/svg">
<path d="M2.70833 5.95833C2.41042 5.95833 2.15529 5.85217 1.94296 5.63983C1.73063 5.4275 1.62464 5.17256 1.625 4.875V2.70833C1.625 2.41042 1.73117 2.15529 1.9435 1.94296C2.15583 1.73063 2.41078 1.62464 2.70833 1.625H4.875C5.17292 1.625 5.42804 1.73117 5.64038 1.9435C5.85271 2.15583 5.9587 2.41078 5.95833 2.70833V4.875C5.95833 5.17292 5.85217 5.42804 5.63983 5.64038C5.4275 5.85271 5.17256 5.9587 4.875 5.95833H2.70833ZM2.70833 11.375C2.41042 11.375 2.15529 11.2688 1.94296 11.0565C1.73063 10.8442 1.62464 10.5892 1.625 10.2917V8.125C1.625 7.82708 1.73117 7.57196 1.9435 7.35963C2.15583 7.14729 2.41078 7.04131 2.70833 7.04167H4.875C5.17292 7.04167 5.42804 7.14783 5.64038 7.36017C5.85271 7.5725 5.9587 7.82745 5.95833 8.125V10.2917C5.95833 10.5896 5.85217 10.8447 5.63983 11.057C5.4275 11.2694 5.17256 11.3754 4.875 11.375H2.70833ZM8.125 5.95833C7.82708 5.95833 7.57196 5.85217 7.35963 5.63983C7.14729 5.4275 7.04131 5.17256 7.04167 4.875V2.70833C7.04167 2.41042 7.14783 2.15529 7.36017 1.94296C7.5725 1.73063 7.82745 1.62464 8.125 1.625H10.2917C10.5896 1.625 10.8447 1.73117 11.057 1.9435C11.2694 2.15583 11.3754 2.41078 11.375 2.70833V4.875C11.375 5.17292 11.2688 5.42804 11.0565 5.64038C10.8442 5.85271 10.5892 5.9587 10.2917 5.95833H8.125ZM8.125 11.375C7.82708 11.375 7.57196 11.2688 7.35963 11.0565C7.14729 10.8442 7.04131 10.5892 7.04167 10.2917V8.125C7.04167 7.82708 7.14783 7.57196 7.36017 7.35963C7.5725 7.14729 7.82745 7.04131 8.125 7.04167H10.2917C10.5896 7.04167 10.8447 7.14783 11.057 7.36017C11.2694 7.5725 11.3754 7.82745 11.375 8.125V10.2917C11.375 10.5896 11.2688 10.8447 11.0565 11.057C10.8442 11.2694 10.5892 11.3754 10.2917 11.375H8.125Z" fill="#232221"/>
</svg>
