<svg width="7" height="12" viewBox="0 0 7 12" fill="none" xmlns="http://www.w3.org/2000/svg">
<path d="M5.61445 0.773562L5.61429 0.773722L0.530399 5.84253C0.530365 5.84256 0.530332 5.8426 0.530298 5.84263C0.483749 5.8892 0.454657 5.93571 0.438308 5.98186L0.438047 5.98258C0.419088 6.03525 0.409026 6.09311 0.409026 6.15733C0.409026 6.22154 0.419088 6.27941 0.438048 6.33207L0.438306 6.3328C0.454669 6.37898 0.483792 6.42552 0.530399 6.47213L5.61445 11.5562C5.72485 11.6666 5.86129 11.7228 6.03485 11.7228C6.20524 11.7228 6.3477 11.6637 6.47034 11.5411C6.59458 11.4169 6.65206 11.2788 6.65206 11.1207C6.65206 10.9625 6.59458 10.8245 6.47034 10.7003L2.035 6.26494L1.92738 6.15733L2.035 6.04971L6.47034 1.61437C6.58153 1.50318 6.63697 1.36897 6.63697 1.20181C6.63697 1.03729 6.57865 0.89696 6.45526 0.773562C6.33101 0.64932 6.193 0.591845 6.03485 0.591845C5.87671 0.591845 5.73869 0.64932 5.61445 0.773562Z" fill="#232221" stroke="white" stroke-width="0.30438"/>
</svg>
