<svg width="48" height="48" viewBox="0 0 48 48" fill="none" xmlns="http://www.w3.org/2000/svg">
<rect x="1.5" y="1.5" width="45" height="45" rx="22.5" fill="white"/>
<rect x="1.5" y="1.5" width="45" height="45" rx="22.5" stroke="#F1F1F1" stroke-width="3"/>
<path d="M27.325 28.275C27.1417 28.0583 27.05 27.8127 27.05 27.538C27.05 27.2633 27.1417 27.034 27.325 26.85L29.175 25H22C21.7167 25 21.479 24.904 21.287 24.712C21.095 24.52 20.9993 24.2827 21 24C21 23.7167 21.096 23.479 21.288 23.287C21.48 23.095 21.7173 22.9993 22 23H29.175L27.325 21.15C27.125 20.95 27.025 20.7123 27.025 20.437C27.025 20.1617 27.125 19.9243 27.325 19.725C27.5083 19.525 27.7377 19.425 28.013 19.425C28.2883 19.425 28.5173 19.5167 28.7 19.7L32.3 23.3C32.4 23.4 32.471 23.5083 32.513 23.625C32.555 23.7417 32.5757 23.8667 32.575 24C32.575 24.1333 32.5543 24.2583 32.513 24.375C32.4717 24.4917 32.4007 24.6 32.3 24.7L28.7 28.3C28.4833 28.5167 28.2457 28.6127 27.987 28.588C27.7283 28.5633 27.5077 28.459 27.325 28.275ZM17 33C16.45 33 15.979 32.804 15.587 32.412C15.195 32.02 14.9993 31.5493 15 31V17C15 16.45 15.196 15.979 15.588 15.587C15.98 15.195 16.4507 14.9993 17 15H23C23.2833 15 23.521 15.096 23.713 15.288C23.905 15.48 24.0007 15.7173 24 16C24 16.2833 23.904 16.521 23.712 16.713C23.52 16.905 23.2827 17.0007 23 17H17V31H23C23.2833 31 23.521 31.096 23.713 31.288C23.905 31.48 24.0007 31.7173 24 32C24 32.2833 23.904 32.521 23.712 32.713C23.52 32.905 23.2827 33.0007 23 33H17Z" fill="#232221"/>
</svg>
