<svg width="7" height="12" viewBox="0 0 7 12" fill="none" xmlns="http://www.w3.org/2000/svg">
<path d="M1.38555 11.4139L1.38571 11.4138L6.4696 6.34497C6.46963 6.34494 6.46967 6.3449 6.4697 6.34487C6.51625 6.2983 6.54534 6.25179 6.56169 6.20564L6.56195 6.20492C6.58091 6.15225 6.59097 6.09439 6.59097 6.03017C6.59097 5.96596 6.58091 5.90809 6.56195 5.85543L6.56169 5.8547C6.54533 5.80852 6.51621 5.76198 6.4696 5.71537L1.38555 0.631321C1.27515 0.520924 1.13871 0.46469 0.965147 0.46469C0.794761 0.46469 0.652304 0.523761 0.529658 0.646407C0.405415 0.77065 0.34794 0.908663 0.34794 1.06681C0.34794 1.22496 0.405415 1.36297 0.529658 1.48721L4.965 5.92256L5.07262 6.03017L4.965 6.13779L0.529658 10.5731C0.418472 10.6843 0.363026 10.8185 0.363026 10.9857C0.363026 11.1502 0.421345 11.2905 0.544743 11.4139C0.668986 11.5382 0.806999 11.5957 0.965147 11.5957C1.12329 11.5957 1.26131 11.5382 1.38555 11.4139Z" fill="#232221" stroke="white" stroke-width="0.30438"/>
</svg>
